# xmcd CD database file
#
# Track frame offsets:
#	150
#	11324
#	20607
#	31513
#	41806
#	52923
#	66317
#	80196
#	92455
#	107255
#	128624
#	143836
#	153397
#	165148
#	180566
#	192159
#	202848
#	212629
#
# Disc length: 3035 seconds
#
# Revision: 0
# Processed by: cddbd v1.5.2PL0 Copyright (c) Steve Scherf et al.
# Submitted via: CDex 1.50Beta7
#
DISCID=d60bd912
DTITLE=Rozni Artysci 4 - gentleman&the city
DYEAR=2015
DGENRE=Jazz
TTITLE0=PAUL ANKA -Diana
TTITLE1=ELVIS PRESLEJ - All Shook Up
TTITLE2=COUNT BASIE and JOE WILLAMS - Syngin In The Rain
TTITLE3=THE BEACH BOYS - Surfer Gril
TTITLE4=ROY ORBISON - Only The Lonly
TTITLE5=MARVIN GAYE - Stubborn Kind Of Fellow
TTITLE6=DEAN MARTIN - Volare
TTITLE7=JOHNNY MATHIS- Johnny One Note
TTITLE8=JOHNNY NASH - Midniht Moonlight
TTITLE9=PHINEAS NEWBORN JR. - Juicy Lucy
TTITLE10=CLIF RICHARD - Its You
TTITLE11=BOBBY RYDELL - Teach Me Tonight
TTITLE12=OTIS WILLAMS and HIS HARMS - Hearts Of Stone
TTITLE13=VIC DAMONE - Prelud To A Kiss
TTITLE14=FRED ASTAIRE - Piel Canela
TTITLE15=THE ISLEY BROTHERS - Rock Aroud The Clock
TTITLE16=ELVIS PRESLEY - Heartbreak Hotel
TTITLE17=CAT STEVENS - Wild World
EXTD=YEAR: 2015
EXTT0=
EXTT1=
EXTT2=
EXTT3=
EXTT4=
EXTT5=
EXTT6=
EXTT7=
EXTT8=
EXTT9=
EXTT10=
EXTT11=
EXTT12=
EXTT13=
EXTT14=
EXTT15=
EXTT16=
EXTT17=
PLAYORDER=
